<!DOCTYPE svg PUBLIC "-//W3C//DTD SVG 1.1//EN" "http://www.w3.org/Graphics/SVG/1.1/DTD/svg11.dtd">
<!-- Uploaded to: SVG Repo, www.svgrepo.com, Transformed by: SVG Repo Mixer Tools -->
<svg fill="#ffffff" width="800px" height="800px" viewBox="0 0 256 256" id="Flat" xmlns="http://www.w3.org/2000/svg" stroke="#ffffff">
<g id="SVGRepo_bgCarrier" stroke-width="0"/>
<g id="SVGRepo_tracerCarrier" stroke-linecap="round" stroke-linejoin="round"/>
<g id="SVGRepo_iconCarrier"> <path d="M141.65723,133.65625l-41.98828,42A8.00033,8.00033,0,0,1,86.01074,170V136H24a8,8,0,0,1,0-16H86.01074V86A8.00033,8.00033,0,0,1,99.669,80.34375l41.98828,42A7.99974,7.99974,0,0,1,141.65723,133.65625ZM192,32H136a8,8,0,0,0,0,16h56V208H136a8,8,0,0,0,0,16h56a16.01833,16.01833,0,0,0,16-16V48A16.01833,16.01833,0,0,0,192,32Z"/> </g>
</svg>